<?xml version="1.0" standalone="no"?><!DOCTYPE svg PUBLIC "-//W3C//DTD SVG 1.1//EN" "http://www.w3.org/Graphics/SVG/1.1/DTD/svg11.dtd"><svg t="1714458947060" class="icon" viewBox="0 0 5504 1024" version="1.1" xmlns="http://www.w3.org/2000/svg" p-id="11032" xmlns:xlink="http://www.w3.org/1999/xlink" width="1075" height="200"><path d="M1461.0572 1024v-630h543.125V147.375c0-18.5-8-34.375-23.75-47.5-15.625-13.125-35.375-20.125-55.75-19.75h-142.625v-72.75H1477.8072v72.625h-188.875v944h172.125z m-244.625-186.875v-75.75h-71.5l129.25-490.125h-133.75l-35.125 114.25h-37.375l104.25-339.625H996.5572l-123.625 414.375h131.5l-107.75 376.875h319.75zM1843.0572 324.5h-341.375V152.75h310.875c20.375 0 30.5 7.5 30.5 22.375V324.5z m-245.375 699.5V785.875h31.5v238.125h94.125V785.875h48.875v238.125h97.5V785.875h41.625v238.125h81.75V495.5c0-18.5-7-34.375-21-47.5-13.125-12.875-30.875-20-49.375-19.75H1499.0572v595.75h98.625z m31.5-309.625h-31.5V499.75h31.5v214.625z m143 0h-48.875V499.75h48.875v214.625z m139 0h-41.625V505c15.875 0 41.625 7.5 41.625 22.375v187z m-694.75 274.375v-68.375h-310.625v68.375h310.625zM2416.5572 1024V795.5l63.5-7.5v-73.625l-63.5 7.5V591.5h64.625v-71.5h-80.5V250.875H2261.3072v269.125H2221.5572L2252.1822 190h227.875v-71.5H2257.9322l11.375-118.5h-154.125l-11.375 118.5h-43v71.625h36.25l-38.625 401.5h146.25v157l-143.875 18.125v72.625l143.875-17.125v201.75H2416.5572zM3095.5572 325.75V105.75c0-18.5-7-34.375-20.875-47.5-13.125-12.875-30.875-20-49.375-19.75H2527.6822V325.75h567.875zM2918.9322 255.125H2706.5572V110h188.625c15.875 0 23.75 7.5 23.75 22.375v122.75z m164.25 767.75V910.75l52.125-3.25v-72.625l-52.125 3.125v-393.75H3135.3072v-73.625H2490.3072v73.625h53.25v432.5l-53.25 4.25v72.625l367.25-25.625v95h225.625z m-168.75-477.25H2710.0572v-101.375h204.5v101.375z m0 164.375H2710.0572v-92.75h204.5v92.75h-0.125zM2710.0572 861.75V779.5h204.5v75.75l-204.5 6.5zM3704.4322 325.75V100.375c0-18.5-6.875-34.375-20.5-47.5-13.25-13-31.25-20.125-49.875-19.75H3240.6822V325.75h463.75z m515.75 0V100.375c0-18.5-7-34.375-21-47.5-13.125-12.875-30.875-20-49.375-19.75H3756.5572V325.75h463.625z m-660.75-70.625h-162.5V105.75h138.75c15.875 0 23.75 7.5 23.75 22.375V255.125z m503.375 0h-162.5V105.75h138.75c15.875 0 23.875 7.5 23.875 22.375V255.125h-0.125z m-493.25 437.875l165.5-114.25 166.625 114.25h323.125L3939.0572 489h291.375v-72.625h-61.25l-14.75-66.25h-237l13.625 66.25h-72.625v-66.25h-256.125v66.25H3215.8072v72.625h306L3236.1822 693h333.375z m134.875 327.875V784.875c0-18.5-6.875-34.375-20.375-47.5-13.25-13-31.25-20.125-49.875-19.75H3227.1822V1020.75l477.25 0.125z m528.25 0V784.875c0-18.5-7-34.375-21-47.5-13.125-12.875-30.875-19.875-49.25-19.75H3756.5572V1020.75l476.125 0.125z m-673.25-70.625H3383.3072V789.125h152.375c15.875 0 23.75 7.5 23.75 22.375v138.75z m523.75 0h-177.25V789.125h153.5c15.875 0 23.75 7.5 23.75 22.375v138.75z m0 0" fill="#2354F4" p-id="11033"></path></svg>