<?xml version="1.0" standalone="no"?><!DOCTYPE svg PUBLIC "-//W3C//DTD SVG 1.1//EN" "http://www.w3.org/Graphics/SVG/1.1/DTD/svg11.dtd"><svg t="1713619284580" class="icon" viewBox="0 0 1024 1024" version="1.1" xmlns="http://www.w3.org/2000/svg" p-id="9400" xmlns:xlink="http://www.w3.org/1999/xlink" width="16" height="16"><path d="M459.014675 850.31022a110.074111 110.074111 0 0 1 105.97833 0l221.786535 121.439903a7.679589 7.679589 0 0 0 5.119726 0.870354c5.273318-0.921551 9.72748-7.4748 8.498745-15.103192l-41.981754-257.982998a116.934544 116.934544 0 0 1 31.486315-100.449026l179.088019-182.927813a13.82326 13.82326 0 0 0 3.583808-7.781984c1.12634-7.628392-3.430216-13.976852-8.703534-14.796009l-247.743546-37.988367a112.633974 112.633974 0 0 1-84.424283-63.586998l-111.098056-234.483455a11.468186 11.468186 0 0 0-4.966134-5.375713c-4.249373-2.201482-9.471493-0.358381-12.184949 5.375713l-111.149253 234.483455a112.633974 112.633974 0 0 1-84.475481 63.586998l-247.743545 37.988367a9.16431 9.16431 0 0 0-5.222121 2.918244 14.847206 14.847206 0 0 0 0.153592 19.659749L234.105108 599.034064c25.80342 26.366589 37.425198 63.791787 31.486315 100.449026l-41.981754 258.034195c-0.511973 3.17423 0 6.450855 1.382326 9.215507 2.815849 5.580501 7.986773 7.270011 12.236145 4.966134l221.786535-121.439903z m-197.211849 166.391098c-29.950398 16.383124-66.91482 4.249373-82.581182-27.032153a66.454045 66.454045 0 0 1-6.143671-40.343442l41.981754-258.034195a65.737283 65.737283 0 0 0-17.560661-56.419382L18.462244 451.944333a65.993269 65.993269 0 0 1-1.023945-90.414363c9.369099-9.983466 21.656441-16.536715 34.865335-18.533408l247.794743-38.039565a61.436713 61.436713 0 0 0 45.923943-34.865335L457.171574 35.608207C472.172371 3.9683 508.932004-8.984607 539.138388 6.681755c12.031356 6.194869 21.758836 16.383124 27.646521 28.926452l111.200451 234.483455a61.436713 61.436713 0 0 0 45.923943 34.865335l247.794743 38.039565c33.380614 5.119726 56.521776 37.57879 51.606839 72.546518-1.945496 13.82326-8.191562 26.622576-17.765449 36.401253L826.508614 634.872146c-14.335233 14.693614-20.93968 35.786885-17.560661 56.470579l41.981754 257.982998c5.631699 34.814137-16.741504 67.785173-50.070921 73.724056a58.87685 58.87685 0 0 1-38.653932-6.399658l-221.837731-121.439903a58.87685 58.87685 0 0 0-56.777763 0l-221.786534 121.439903z" fill="#D7D7D7" p-id="9401"></path></svg>